<?xml version="1.0" standalone="no"?>
<!DOCTYPE svg PUBLIC "-//W3C//DTD SVG 20010904//EN"
 "http://www.w3.org/TR/2001/REC-SVG-20010904/DTD/svg10.dtd">
<svg version="1.0" xmlns="http://www.w3.org/2000/svg"
 width="512.000000pt" height="512.000000pt" viewBox="0 0 512.000000 512.000000"
 preserveAspectRatio="xMidYMid meet">
<metadata>
Created by potrace 1.11, written by Peter Selinger 2001-2013
</metadata>
<g transform="translate(0.000000,512.000000) scale(0.100000,-0.100000)"
fill="#000000" stroke="none">
<path d="M2485 4916 c-289 -49 -542 -176 -745 -376 -160 -157 -274 -341 -344
-552 -69 -209 -66 -105 -66 -2011 l0 -1719 34 -34 34 -34 606 0 c523 0 611 2
636 15 64 33 60 -45 60 1288 l0 1214 88 6 c198 13 387 108 538 270 134 144
223 353 224 525 l0 52 259 0 260 0 -5 73 c-33 448 -257 837 -618 1072 -149 97
-272 148 -456 191 -132 31 -381 41 -505 20z m-237 -1110 c56 -29 92 -65 124
-126 33 -65 33 -176 -2 -243 -104 -204 -398 -199 -496 8 -33 69 -33 161 0 230
29 63 103 130 165 150 61 20 148 12 209 -19z"/>
</g>
</svg>
